<svg width="44" height="74" viewBox="0 0 44 74" fill="none" xmlns="http://www.w3.org/2000/svg">
<path d="M26.7837 48.8803L33.2057 41.667C35.5797 44.4062 36.8885 47.8759 36.8885 51.5587C36.8885 59.8981 30.1013 66.6854 21.7618 66.6854C13.4223 66.6854 6.63506 59.8981 6.63506 51.5587C6.63506 47.8759 7.94381 44.4062 10.3178 41.667L16.7398 48.8803C18.0181 50.3108 19.8139 51.1021 21.7313 51.1021C23.6793 51.1021 25.5054 50.2804 26.7837 48.8803ZM21.7618 44.4366L14.8224 36.6754L21.7618 28.9142C21.7618 28.9142 21.7618 28.9142 21.7922 28.9142C21.7922 28.9142 21.7922 28.9142 21.8226 28.9142L28.7621 36.6754L21.7922 44.4366C21.7922 44.4366 21.7922 44.4366 21.7618 44.4366ZM6.6655 21.7922C6.6655 13.4527 13.4527 6.66549 21.7922 6.66549C30.1317 6.66549 36.9189 13.4527 36.9189 21.7922C36.9189 25.475 35.6102 28.9447 33.2362 31.6839L26.7837 24.4706C25.5054 23.0401 23.6792 22.2183 21.7922 22.2183C19.8747 22.2183 18.079 23.0401 16.8007 24.4401L10.3483 31.6839C7.97425 28.9142 6.6655 25.4445 6.6655 21.7922ZM0 21.7922C0 27.362 2.06965 32.6274 5.87416 36.6754C2.06965 40.7234 0 45.9889 0 51.5587C0 63.5809 9.76997 73.3509 21.7922 73.3509C33.8145 73.3509 43.5844 63.5809 43.5844 51.5587C43.5844 45.9889 41.5148 40.7234 37.7103 36.6754C41.5148 32.6274 43.5844 27.362 43.5844 21.7922C43.554 9.76997 33.784 0 21.7922 0C9.76997 0 0 9.76997 0 21.7922Z" fill="url(#paint0_linear_528_1232)"/>
<defs>
<linearGradient id="paint0_linear_528_1232" x1="21.7922" y1="0" x2="21.7922" y2="73.3509" gradientUnits="userSpaceOnUse">
<stop stop-color="#143C5A"/>
<stop offset="0.494792" stop-color="#0AAAD2"/>
<stop offset="1" stop-color="#50FAB4"/>
</linearGradient>
</defs>
</svg>
