<svg width="18" height="31" viewBox="0 0 18 31" fill="none" xmlns="http://www.w3.org/2000/svg">
<path d="M11.0615 20.6581L13.7137 17.6095C14.6941 18.7672 15.2346 20.2336 15.2346 21.79C15.2346 25.3145 12.4316 28.183 8.98743 28.183C5.5433 28.183 2.74022 25.3145 2.74022 21.79C2.74022 20.2336 3.28073 18.7672 4.26117 17.6095L6.91341 20.6581C7.44134 21.2627 8.18296 21.5971 8.97486 21.5971C9.77933 21.5971 10.5335 21.2498 11.0615 20.6581ZM8.98743 18.7801L6.12151 15.5L8.98743 12.2199C8.98743 12.2199 8.98743 12.2199 9 12.2199C9 12.2199 9 12.2199 9.01257 12.2199L11.8785 15.5L9 18.7801C9 18.7801 9 18.7801 8.98743 18.7801ZM2.75279 9.20996C2.75279 5.68548 5.55587 2.81701 9 2.81701C12.4441 2.81701 15.2472 5.68548 15.2472 9.20996C15.2472 10.7664 14.7067 12.2328 13.7263 13.3905L11.0615 10.3419C10.5335 9.73734 9.77933 9.39004 9 9.39004C8.2081 9.39004 7.46648 9.73735 6.93855 10.329L4.27374 13.3905C3.2933 12.2199 2.75279 10.7535 2.75279 9.20996ZM0 9.20996C0 11.5639 0.854749 13.7892 2.42598 15.5C0.854749 17.2108 0 19.4361 0 21.79C0 26.871 4.03492 31 9 31C13.9651 31 18 26.871 18 21.79C18 19.4361 17.1453 17.2108 15.574 15.5C17.1453 13.7892 18 11.5639 18 9.20996C17.9874 4.12905 13.9525 0 9 0C4.03492 0 0 4.12905 0 9.20996Z" fill="url(#paint0_linear_65_29)"/>
<defs>
<linearGradient id="paint0_linear_65_29" x1="9" y1="0" x2="9" y2="31" gradientUnits="userSpaceOnUse">
<stop stop-color="#143C5A"/>
<stop offset="0.494792" stop-color="#0AAAD2"/>
<stop offset="1" stop-color="#50FAB4"/>
</linearGradient>
</defs>
</svg>
